<svg width="100" height="100" viewBox="0 0 100 100" fill="none" xmlns="http://www.w3.org/2000/svg">
<g clip-path="url(#clip0_71_3220)">
<path d="M60.7951 74.8158L48.9488 63.8982C47.9079 62.9419 47.0663 61.7893 46.4723 60.5066C45.8784 59.2239 45.5439 57.8364 45.4881 56.4239C45.4323 55.0115 45.6562 53.6021 46.147 52.2765C46.6379 50.951 47.386 49.7355 48.3483 48.7001C48.7902 48.2246 49.2703 47.7862 49.784 47.3894C50.2957 47.0199 50.8344 46.689 51.3952 46.3993L65.0569 39.5124L78.341 32.8206L94.4652 24.6949C94.6148 24.6195 94.7779 24.5746 94.945 24.5633C95.1121 24.5519 95.2798 24.5744 95.4382 24.6289C95.5965 24.6835 95.7422 24.7692 95.8668 24.8811C95.9914 24.993 96.0923 25.1287 96.1636 25.2803C96.2481 25.4384 96.296 25.6136 96.3033 25.7928C96.3106 25.9719 96.2775 26.1505 96.206 26.315L94.412 30.7077L92.2966 35.9122L89.7669 42.1194L87.6422 47.343L78.0212 70.9971C77.4885 72.3038 76.7036 73.4928 75.7113 74.4962C74.7191 75.4996 73.539 76.2979 72.2383 76.8452C70.9376 77.3925 69.5419 77.6783 68.1307 77.6861C66.7196 77.694 65.3207 77.4239 64.014 76.8911C62.8224 76.4036 61.731 75.7 60.7951 74.8158Z" fill="#FF3A18"/>
<path d="M53.2497 67.6112L38.3887 83.7188L41.5571 86.642L56.4182 70.5345L53.2497 67.6112Z" fill="#FF6D4B"/>
<path d="M25.0303 110.97C23.5183 112.683 21.8399 114.242 20.0201 115.624C15.9936 118.536 13.6947 117.778 11.8005 116.037C11.0606 115.4 10.4968 114.583 10.1638 113.665C9.95923 112.646 9.97791 111.594 10.2186 110.582C10.4594 109.571 10.9164 108.623 11.5583 107.805C12.7824 105.891 14.1868 104.097 15.7519 102.45C20.081 97.8268 24.8984 93.6865 30.1198 90.1017C31.5032 89.1832 32.7709 88.1015 33.8953 86.8796L43.9128 75.9189C44.1026 75.7102 44.3319 75.5414 44.5877 75.4223C44.8435 75.3033 45.1205 75.2363 45.4024 75.2254C45.6844 75.2146 45.9656 75.2603 46.2297 75.3594C46.4939 75.4585 46.7356 75.609 46.9409 75.8026L48.9696 77.6566C49.1806 77.8473 49.3512 78.0784 49.4712 78.3362C49.5911 78.5941 49.6581 78.8734 49.668 79.1576C49.678 79.4418 49.6308 79.7252 49.5292 79.9909C49.4276 80.2565 49.2736 80.4988 49.0765 80.7038L39.059 91.6644C37.9331 92.8827 36.9622 94.2353 36.1681 95.6917C33.0222 101.174 29.2875 106.297 25.0303 110.97Z" fill="#002C50"/>
<path opacity="0.2" d="M60.7768 62.9436C60.5703 62.7462 60.3262 62.5923 60.059 62.4914C59.7918 62.3906 59.5069 62.3448 59.2215 62.3566C58.9361 62.3683 58.6561 62.4375 58.3981 62.56C58.1401 62.6825 57.9096 62.8558 57.7201 63.0695L53.2261 67.973L56.4951 70.9692L60.9891 66.0656C61.1918 65.8525 61.3481 65.5994 61.448 65.3226C61.5478 65.0459 61.589 64.7512 61.569 64.4577C61.5491 64.1642 61.4684 63.8782 61.332 63.6175C61.1956 63.3568 61.0065 63.1274 60.7768 62.9436Z" fill="#231F20"/>
<path d="M40.5865 82.2167C37.7496 85.3032 36.0229 88.3369 36.744 88.9922C37.465 89.6474 40.3456 87.6906 43.2017 84.6134C46.0577 81.5362 47.7556 78.5125 47.0439 77.8381C46.3321 77.1637 43.4425 79.1395 40.5865 82.2167Z" fill="#00566C"/>
<path d="M25.0284 110.972C23.5163 112.685 21.8379 114.244 20.0181 115.626C15.9916 118.538 13.6928 117.781 11.7986 116.039C11.0586 115.402 10.4948 114.585 10.1618 113.667C10.644 113.5 11.0971 113.294 11.5503 113.089C13.7958 111.948 15.8949 110.539 17.8014 108.893C21.0528 106.266 24.1692 103.48 27.2084 100.61C32.5545 95.5048 37.5737 90.1003 42.4967 84.6021C43.7228 83.2372 44.949 81.8723 46.1369 80.4888C46.9605 79.4267 47.8444 78.413 48.7845 77.4524L49.0711 77.591C49.2826 77.7796 49.4542 78.0087 49.5758 78.2647C49.6974 78.5206 49.7664 78.7983 49.779 79.0813C49.7916 79.3644 49.7474 79.6471 49.649 79.9128C49.5507 80.1786 49.4003 80.422 49.2065 80.6286L39.1891 91.5891C38.0796 92.8206 37.1099 94.1714 36.2981 95.6166C33.1161 101.133 29.3368 106.282 25.0284 110.972Z" fill="#11486D"/>
<path opacity="0.3" d="M92.3131 35.92L65.0732 39.52L78.3575 32.8283L94.4378 30.6963L92.3131 35.92Z" fill="white"/>
<path opacity="0.3" d="M87.6547 47.324L45.9749 52.8348C46.6218 50.6544 47.9598 48.7433 49.7873 47.3894L89.7702 42.1195L87.6547 47.324Z" fill="white"/>
<path d="M47.1713 46.9656L46.3341 59.4077C46.1099 61.7756 44.7287 63.522 43.0888 63.4947L41.186 63.3145C39.4101 63.1463 37.7512 65.1224 37.3901 67.584L34.2133 89.19L31.2022 109.724L29.3456 122.347C28.9665 124.999 27.2844 126.994 25.4391 126.883L25.1642 126.857C23.3883 126.689 22.1085 124.435 22.072 121.893L21.9667 113.543L21.6945 95.4704L21.3105 68.2154L21.3017 66.5083C21.2952 65.547 21.0713 64.5996 20.6467 63.7372C20.4303 63.212 20.0791 62.7533 19.6288 62.4073C19.1784 62.0613 18.6447 61.8403 18.0815 61.7665L16.1999 61.5883C14.5509 61.4322 13.3509 59.4627 13.4926 57.0657L14.3298 44.6234L47.1713 46.9656Z" fill="#002C50"/>
<path d="M47.3485 43.8943L46.5848 55.7887L13.7273 53.6158L14.491 41.7211L37.1301 43.2253L47.3485 43.8943Z" fill="#FF3A18"/>
<path d="M46.9153 51.6246L14.0493 49.459L13.953 50.921L46.819 53.0866L46.9153 51.6246Z" fill="#FB522A"/>
<path d="M47.1007 47.1585L14.2339 45.0044L14.138 46.4667L47.0048 48.6208L47.1007 47.1585Z" fill="#FB522A"/>
<path d="M47.3165 43.9422L14.4497 41.7881L14.3539 43.2504L47.2206 45.4045L47.3165 43.9422Z" fill="#FB522A"/>
<path d="M51.5726 23.665C49.1458 30.1535 47.73 36.9764 47.3745 43.8947L37.135 43.2237L14.517 41.7216C15.1263 34.8386 14.734 27.9037 13.3525 21.1334L42.183 23.0317L51.5726 23.665Z" fill="#D0C2B9"/>
<path d="M16.6156 21.3592L17.9049 28.2431L18.3534 21.4811L16.6156 21.3592Z" fill="white"/>
<path d="M24.8841 21.9057L25.2865 25.3143L25.9663 21.9657L26.6536 26.8728L27.2388 22.0435L24.8841 21.9057Z" fill="white"/>
<path d="M32.6748 22.4933L33.6661 27.7919L34.0087 22.5983L32.6748 22.4933Z" fill="white"/>
<path d="M35.1429 22.5796L35.5224 26.0071L36.202 22.6585L36.9104 27.5676L37.3689 22.7263L35.1429 22.5796Z" fill="white"/>
<path d="M16.0225 41.82C16.5918 34.9186 16.0323 27.9703 14.3657 21.249L14.5771 21.269C16.2575 28.0175 16.8216 34.9956 16.247 41.9264L16.0225 41.82Z" fill="white"/>
<path d="M17.2827 41.9203C17.6201 35.0299 17.1356 28.1238 15.8394 21.3481L16.0719 21.3702C17.3643 28.1677 17.8468 35.0944 17.5093 42.0055L17.2827 41.9203Z" fill="white"/>
<path d="M19.8953 21.413L19.6406 21.4058L19.0619 41.8693L19.3167 41.8765L19.8953 21.413Z" fill="white"/>
<path d="M19.9023 42.0804L21.2383 21.665L21.492 21.6891L20.1348 42.1025L19.9023 42.0804Z" fill="white"/>
<path d="M21.3188 42.1717L22.6548 21.7563L22.9085 21.7804L21.5725 42.1958L21.3188 42.1717Z" fill="white"/>
<path d="M22.8026 42.2723L24.1387 21.8569L24.3924 21.881L23.0352 42.2943L22.8026 42.2723Z" fill="white"/>
<path d="M24.0867 42.3543L25.2021 25.395L25.4347 25.417L24.3192 42.3763L24.0867 42.3543Z" fill="white"/>
<path d="M25.5188 42.4442L26.6343 25.4849L26.888 25.5089L25.7725 42.4682L25.5188 42.4442Z" fill="white"/>
<path d="M28.0972 22.1493L27.8428 22.1343L26.6323 42.5701L26.8867 42.5852L28.0972 22.1493Z" fill="white"/>
<path d="M28.0409 42.6195L29.377 22.2041L29.6306 22.2281L28.2735 42.6415L28.0409 42.6195Z" fill="white"/>
<path d="M29.6318 42.7303L30.9678 22.3149L31.2215 22.339L29.8643 42.7524L29.6318 42.7303Z" fill="white"/>
<path d="M31.2177 42.8348L32.5537 22.4194L32.8074 22.4435L31.4502 42.8568L31.2177 42.8348Z" fill="white"/>
<path d="M32.455 42.909L33.791 22.4937L34.0447 22.5177L32.6875 42.9311L32.455 42.909Z" fill="white"/>
<path d="M34.2938 43.0376L35.6318 22.6011L35.8855 22.6251L34.5475 43.0617L34.2938 43.0376Z" fill="white"/>
<path d="M35.6717 43.128L37.0098 22.6914L37.2635 22.7154L35.9254 43.152L35.6717 43.128Z" fill="white"/>
<path d="M37.5834 43.245L38.9194 22.8296L39.1731 22.8536L37.8159 43.267L37.5834 43.245Z" fill="white"/>
<path d="M39.1679 43.3553L40.5039 22.9399L40.7576 22.964L39.4004 43.3774L39.1679 43.3553Z" fill="white"/>
<path d="M40.9437 43.4786L42.2817 23.042L42.5354 23.066L41.1974 43.5026L40.9437 43.4786Z" fill="white"/>
<path d="M42.4845 43.5626L43.8208 23.1475L44.0745 23.1715L42.7171 43.5846L42.4845 43.5626Z" fill="white"/>
<path d="M43.8728 43.6697L45.23 23.2563L45.4625 23.2784L44.1265 43.6938L43.8728 43.6697Z" fill="white"/>
<path d="M45.2773 43.7572L46.6133 23.3418L46.867 23.3658L45.5098 43.7792L45.2773 43.7572Z" fill="white"/>
<path d="M46.1413 43.8023C46.1533 43.6754 47.1901 30.2496 49.961 23.5153L50.1935 23.5374C47.4266 30.2293 46.4152 43.6148 46.4032 43.7417L46.1413 43.8023Z" fill="white"/>
<path d="M34.2018 89.2559L31.1927 109.769C28.849 111.699 26.0339 112.971 23.0364 113.455L21.9553 113.608L21.683 95.5363C26.3849 94.7257 30.741 92.5402 34.2018 89.2559Z" fill="#FF6D4B"/>
<path opacity="0.1" d="M51.5736 23.6652C49.1504 30.155 47.7278 36.9756 47.3544 43.893L46.3327 59.4105C46.1085 61.7783 44.7273 63.5248 43.0874 63.4975L41.1846 63.3173C39.4087 63.1491 37.7498 65.1252 37.3887 67.5868L34.2099 89.214L31.2008 109.727L29.3443 122.35C28.9671 124.98 27.285 126.976 25.4377 126.886C25.4637 126.611 25.4876 126.358 25.6808 126.12C28.6687 117.322 30.5238 108.179 31.2011 98.9121C31.7839 91.1815 31.4896 83.0264 28.755 76.5387C27.4239 72.9487 24.7857 69.994 21.3686 68.2666L21.3595 66.5594C21.3531 65.5981 21.1294 64.6507 20.7048 63.7883C23.9878 61.0063 27.0252 57.9467 29.7833 54.6436C31.2967 52.8313 32.6953 50.9263 33.971 48.9395C34.5454 48.0553 35.1026 47.1268 35.6407 46.1752C36.1788 45.2236 36.7288 44.1452 37.2035 43.1876C39.5248 38.4239 41.1275 33.3424 41.9592 28.1088C42.1622 26.4192 42.2589 24.7185 42.2493 23.0168L51.5736 23.6652Z" fill="#FFF8FA"/>
<g opacity="0.5">
<path opacity="0.5" d="M23.3461 116.061C23.2551 116.054 23.17 116.014 23.1057 115.949C23.0414 115.885 23.0024 115.799 22.9957 115.708L22.5403 77.2688C22.5373 77.1699 22.573 77.0737 22.6397 77.0004C22.7063 76.9271 22.7987 76.8826 22.8975 76.8761C22.9469 76.8749 22.996 76.8838 23.0419 76.9023C23.0877 76.9209 23.1294 76.9487 23.1641 76.9839C23.1987 77.0192 23.2258 77.0612 23.2435 77.1073C23.2613 77.1535 23.2691 77.2028 23.267 77.2523L23.7436 115.693C23.7449 115.743 23.736 115.792 23.7175 115.838C23.6989 115.884 23.6709 115.925 23.6356 115.96C23.6003 115.995 23.5584 116.022 23.5122 116.039C23.466 116.057 23.4167 116.065 23.3673 116.063L23.3461 116.061Z" fill="white"/>
</g>
<g opacity="0.4">
<path opacity="0.5" d="M15.8262 55.5393C16.4505 57.7315 17.8126 59.5672 19.4788 59.7676C20.0582 59.8245 20.6378 59.6608 21.102 59.3094C21.5662 58.958 21.8808 58.4448 21.9834 57.8717C22.1645 56.8719 21.9989 55.8401 21.5138 54.9473C21.1016 54.119 20.5717 53.4077 20.2079 52.52C19.5633 50.5253 19.4486 48.3974 19.8753 46.3451C20.0348 45.782 20.0904 45.1946 20.0394 44.6116C19.6148 43.0142 16.9677 41.91 16.259 43.7627C16.0124 44.6761 15.8592 45.6123 15.8023 46.5567C15.5797 48.0062 15.4413 49.4673 15.3878 50.9329C15.3291 52.481 15.4766 54.0301 15.8262 55.5393Z" fill="white"/>
</g>
<path d="M47.6317 23.3997L47.4776 28.6325L48.9677 23.4836L47.6317 23.3997Z" fill="white"/>
<path d="M41.8417 23.0178L42.2209 26.4456L42.9008 23.0968L43.6092 28.0061L44.0676 23.1648L41.8417 23.0178Z" fill="white"/>
</g>
<defs>
<clipPath id="clip0_71_3220">
<rect width="100" height="100" fill="white"/>
</clipPath>
</defs>
</svg>
